<?xml version="1.0" encoding="UTF-8"?>
<svg width="1536px" height="768px" viewBox="0 0 1536 768" version="1.1" xmlns="http://www.w3.org/2000/svg" xmlns:xlink="http://www.w3.org/1999/xlink">
    <title>8445F860-D1FC-4F42-B803-1B090A9B19AF</title>
    <defs>
        <rect id="path-1" x="0" y="0" width="1536" height="768"></rect>
        <polygon id="path-3" points="0 1456 6548.45247 1456 6548.45247 0.458865233 0 0.458865233"></polygon>
    </defs>
    <g id="Page-1" stroke="none" stroke-width="1" fill="none" fill-rule="evenodd">
        <g id="bg">
            <mask id="mask-2" fill="white">
                <use xlink:href="#path-1"></use>
            </mask>
            <use id="cell" fill="#0B0B0C" xlink:href="#path-1"></use>
            <g id="shape" opacity="0.3" mask="url(#mask-2)">
                <g transform="translate(-4444.000000, -68.000000)" id="Group-689">
                    <g transform="translate(0.757796, 0.000000)">
                        <mask id="mask-4" fill="white">
                            <use xlink:href="#path-3"></use>
                        </mask>
                        <g id="Clip-5"></g>
                        <path d="M4487.14303,242.921804 L4607.63364,242.921804 C4607.58476,211.115037 4601.38246,180.078645 4589.19701,150.66546 C4576.96193,121.135459 4559.30574,94.710624 4536.71643,72.1262087 C4514.12788,49.5417934 4487.69897,31.8880797 4458.16279,19.656 C4428.74422,7.47278448 4397.70291,1.27161405 4365.89032,1.22274987 L4365.89032,121.691289 C4397.77774,121.793598 4428.96644,134.763222 4451.51757,157.310225 C4474.06871,179.856466 4487.04071,211.040977 4487.14303,242.921804 L4487.14303,242.921804 Z M4608.39728,243.685307 L4486.38016,243.685307 L4486.38016,243.303555 C4486.38016,211.490681 4473.47688,180.344344 4450.97768,157.850022 C4428.47924,135.354937 4397.3272,122.454028 4365.50849,122.454028 L4365.12667,122.454028 L4365.12667,0.459246985 L4365.50849,0.459246985 C4397.55476,0.459246985 4428.82669,6.68103199 4458.45527,18.9505233 C4488.08308,31.2215417 4514.59599,48.9302276 4537.25632,71.5864122 C4559.91666,94.2425967 4577.62935,120.74989 4589.90185,150.373802 C4602.17512,179.996187 4608.39728,211.263157 4608.39728,243.303555 L4608.39728,243.685307 Z" id="Fill-70" fill="#727272" mask="url(#mask-4)"></path>
                        <path d="M4729.26848,1.22244447 C4662.62004,1.22244447 4608.39682,55.4349668 4608.39682,122.071971 C4608.39682,188.708976 4662.62004,242.921498 4729.26848,242.921498 C4795.91693,242.921498 4850.14015,188.708976 4850.14015,122.071971 C4850.14015,55.4349668 4795.91693,1.22244447 4729.26848,1.22244447 M4729.26848,243.685001 C4662.19851,243.685001 4607.63318,189.129666 4607.63318,122.071971 C4607.63318,55.0142767 4662.19851,0.458941584 4729.26848,0.458941584 C4796.33846,0.458941584 4850.90379,55.0142767 4850.90379,122.071971 C4850.90379,189.129666 4796.33846,243.685001 4729.26848,243.685001" id="Fill-76" fill="#727272" mask="url(#mask-4)"></path>
                        <path d="M4850.90318,1.22244447 C4850.95205,33.0292111 4857.15512,64.0656034 4869.34133,93.4787885 C4881.57489,123.00879 4899.23183,149.433624 4921.82039,172.01804 C4944.40894,194.602455 4970.83861,212.256169 5000.37402,224.488248 C5029.79259,236.671464 5060.83391,242.872634 5092.6465,242.921498 L5092.6465,122.452959 C5060.75983,122.35065 5029.57037,109.381027 5007.02,86.8340229 C4984.46811,64.2877827 4971.49611,33.1032709 4971.39378,1.22244447 L4850.90318,1.22244447 Z M5093.41014,243.685001 L5093.02832,243.685001 C5060.98282,243.685001 5029.71012,237.463216 5000.08231,225.193725 C4970.45374,212.922707 4943.94082,195.214021 4921.28049,172.557836 C4898.62016,149.901652 4880.90823,123.394358 4868.63572,93.7704466 C4856.3617,64.1472982 4850.13953,32.8810916 4850.13953,0.840693026 L4850.13953,0.458941584 L4972.15666,0.458941584 L4972.15666,0.840693026 C4972.15666,32.6535677 4985.06069,63.7999044 5007.5599,86.2942263 C5030.05758,108.789312 5061.20962,121.69022 5093.02832,121.69022 L5093.41014,121.69022 L5093.41014,243.685001 Z" id="Fill-77" fill="#727272" mask="url(#mask-4)"></path>
                        <path d="M5027.02874,132.609762 L5032.44144,132.609762 L5032.44144,1.22236812 L5027.02874,1.22236812 L5027.02874,132.609762 Z M5026.2651,133.373265 L5033.20508,133.373265 L5033.20508,0.458865233 L5026.2651,0.458865233 L5026.2651,133.373265 Z" id="Fill-78" fill="#727272" mask="url(#mask-4)"></path>
                        <path d="M5042.0809,132.609762 L5047.49284,132.609762 L5047.49284,1.22236812 L5042.0809,1.22236812 L5042.0809,132.609762 Z M5041.31726,133.373265 L5048.25648,133.373265 L5048.25648,0.458865233 L5041.31726,0.458865233 L5041.31726,133.373265 Z" id="Fill-79" fill="#727272" mask="url(#mask-4)"></path>
                        <path d="M5057.13307,132.609762 L5062.545,132.609762 L5062.545,1.22236812 L5057.13307,1.22236812 L5057.13307,132.609762 Z M5056.36942,133.373265 L5063.30864,133.373265 L5063.30864,0.458865233 L5056.36942,0.458865233 L5056.36942,133.373265 Z" id="Fill-80" fill="#727272" mask="url(#mask-4)"></path>
                        <path d="M5072.18294,132.609762 L5077.59564,132.609762 L5077.59564,1.22236812 L5072.18294,1.22236812 L5072.18294,132.609762 Z M5071.41929,133.373265 L5078.35928,133.373265 L5078.35928,0.458865233 L5071.41929,0.458865233 L5071.41929,133.373265 Z" id="Fill-81" fill="#727272" mask="url(#mask-4)"></path>
                        <path d="M5087.2351,132.609762 L5092.64703,132.609762 L5092.64703,1.22236812 L5087.2351,1.22236812 L5087.2351,132.609762 Z M5086.47146,133.373265 L5093.41068,133.373265 L5093.41068,0.458865233 L5086.47146,0.458865233 L5086.47146,133.373265 Z" id="Fill-82" fill="#727272" mask="url(#mask-4)"></path>
                        <path d="M5214.6634,242.921422 L5335.15324,242.921422 L5335.15324,122.453647 L5214.6634,122.453647 L5214.6634,242.921422 Z M5213.89975,243.684925 L5335.91688,243.684925 L5335.91688,121.690144 L5213.89975,121.690144 L5213.89975,243.684925 Z" id="Fill-83" fill="#727272" mask="url(#mask-4)"></path>
                        <path d="M5214.2815,1.22244447 C5147.63305,1.22244447 5093.40984,55.4349668 5093.40984,122.071971 C5093.40984,188.708976 5147.63305,242.921498 5214.2815,242.921498 C5280.92994,242.921498 5335.15316,188.708976 5335.15316,122.071971 C5335.15316,55.4349668 5280.92994,1.22244447 5214.2815,1.22244447 M5214.2815,243.685001 C5147.21152,243.685001 5092.64619,189.129666 5092.64619,122.071971 C5092.64619,55.0142767 5147.21152,0.458941584 5214.2815,0.458941584 C5281.35147,0.458941584 5335.9168,55.0142767 5335.9168,122.071971 C5335.9168,189.129666 5281.35147,243.685001 5214.2815,243.685001" id="Fill-84" fill="#727272" mask="url(#mask-4)"></path>
                        <path d="M5376.3342,242.921422 L5537.24212,242.921422 L5537.24212,1.22236812 L5376.3342,1.22236812 L5376.3342,242.921422 Z M5375.57055,243.684925 L5538.00576,243.684925 L5538.00576,0.458865233 L5375.57055,0.458865233 L5375.57055,243.684925 Z" id="Fill-85" fill="#727272" mask="url(#mask-4)"></path>
                        <path d="M5349.38906,124.425775 L5564.18725,124.425775 L5564.18725,38.9806397 L5349.38906,38.9806397 L5349.38906,124.425775 Z M5348.62542,125.189277 L5564.95089,125.189277 L5564.95089,38.2171369 L5348.62542,38.2171369 L5348.62542,125.189277 Z" id="Fill-86" fill="#727272" mask="url(#mask-4)"></path>
                        <path d="M5578.95748,132.610525 L5819.68515,132.610525 C5820.0097,128.883104 5820.16701,125.432835 5820.16701,122.072659 C5820.16701,55.4356539 5765.95602,1.22313162 5699.32132,1.22313162 C5632.68662,1.22313162 5578.47562,55.4356539 5578.47562,122.072659 C5578.47562,125.432835 5578.63293,128.883104 5578.95748,132.610525 L5578.95748,132.610525 Z M5820.38389,133.374028 L5578.25874,133.374028 L5578.22743,133.025871 C5577.88074,129.142695 5577.71198,125.559576 5577.71198,122.072659 C5577.71198,55.0149638 5632.26585,0.459628736 5699.32132,0.459628736 C5766.37755,0.459628736 5820.93066,55.0149638 5820.93066,122.072659 C5820.93066,125.559576 5820.76189,129.142695 5820.4152,133.025871 L5820.38389,133.374028 Z" id="Fill-87" fill="#727272" mask="url(#mask-4)"></path>
                        <path d="M5699.26847,71.3431601 C5671.297,71.3431601 5648.54045,94.1001271 5648.54045,122.072582 C5648.54045,150.045037 5671.297,172.802004 5699.26847,172.802004 C5716.47945,172.802004 5732.29831,164.198854 5741.72777,149.750325 L5735.06804,149.750325 C5726.38161,160.963129 5713.3447,167.389532 5699.26847,167.389532 C5674.28132,167.389532 5653.95239,147.060505 5653.95239,122.072582 C5653.95239,97.0846599 5674.28132,76.7548686 5699.26847,76.7548686 C5724.25563,76.7548686 5744.58456,97.0846599 5744.58456,122.072582 C5744.58456,125.504528 5744.14928,129.047181 5743.29095,132.611213 L5748.87088,132.611213 C5749.61773,129.092991 5749.99573,125.548811 5749.99573,122.072582 C5749.99573,94.1001271 5727.23918,71.3431601 5699.26847,71.3431601 M5699.26847,173.565507 C5670.87547,173.565507 5647.77681,150.465728 5647.77681,122.072582 C5647.77681,93.679437 5670.87547,70.5796573 5699.26847,70.5796573 C5727.66071,70.5796573 5750.75937,93.679437 5750.75937,122.072582 C5750.75937,125.702275 5750.35312,129.403737 5749.55282,133.074659 L5749.48714,133.374715 L5742.31501,133.374715 L5742.43338,132.90058 C5743.35357,129.23653 5743.82092,125.593858 5743.82092,122.072582 C5743.82092,97.50535 5723.83486,77.5183715 5699.26847,77.5183715 C5674.70209,77.5183715 5654.71603,97.50535 5654.71603,122.072582 C5654.71603,146.639815 5674.70209,166.62603 5699.26847,166.62603 C5713.16753,166.62603 5726.0372,160.251544 5734.57702,149.135706 L5734.69233,148.986822 L5743.12142,148.986822 L5742.74876,149.572429 C5733.22843,164.595875 5716.97353,173.565507 5699.26847,173.565507" id="Fill-88" fill="#727272" mask="url(#mask-4)"></path>
                        <path d="M5699.26847,53.8131339 C5661.63158,53.8131339 5631.01179,84.4341806 5631.01179,122.072582 C5631.01179,159.710984 5661.63158,190.332031 5699.26847,190.332031 C5726.28386,190.332031 5750.71126,174.422921 5761.66725,149.750325 L5755.678,149.750325 C5745.14813,171.122298 5723.03303,184.919559 5699.26847,184.919559 C5664.61513,184.919559 5636.42297,156.726451 5636.42297,122.072582 C5636.42297,87.4187134 5664.61513,59.2248424 5699.26847,59.2248424 C5733.92181,59.2248424 5762.11398,87.4187134 5762.11398,122.072582 C5762.11398,125.540412 5761.81005,129.083829 5761.20982,132.611213 L5766.70652,132.611213 C5767.24947,129.106734 5767.52591,125.563317 5767.52591,122.072582 C5767.52591,84.4341806 5736.90537,53.8131339 5699.26847,53.8131339 M5699.26847,191.095534 C5661.21081,191.095534 5630.24815,160.131674 5630.24815,122.072582 C5630.24815,84.0134905 5661.21081,53.049631 5699.26847,53.049631 C5737.3269,53.049631 5768.28956,84.0134905 5768.28956,122.072582 C5768.28956,125.70991 5767.99326,129.4045 5767.40984,133.053281 L5767.35868,133.374715 L5760.30109,133.374715 L5760.38051,132.926539 C5761.02426,129.294556 5761.35033,125.642722 5761.35033,122.072582 C5761.35033,87.8394035 5733.50028,59.9883453 5699.26847,59.9883453 C5665.03666,59.9883453 5637.18661,87.8394035 5637.18661,122.072582 C5637.18661,156.305761 5665.03666,184.156056 5699.26847,184.156056 C5722.82303,184.156056 5744.73729,170.435909 5755.09686,149.201367 L5755.20148,148.986822 L5762.83333,148.986822 L5762.60271,149.520511 C5751.64214,174.776423 5726.78176,191.095534 5699.26847,191.095534" id="Fill-89" fill="#727272" mask="url(#mask-4)"></path>
                        <path d="M5699.26847,36.2831841 C5651.96539,36.2831841 5613.48161,74.7683104 5613.48161,122.072659 C5613.48161,169.377007 5651.96539,207.862133 5699.26847,207.862133 C5736.0562,207.862133 5768.61792,184.532539 5780.46508,149.750402 L5774.72783,149.750402 C5763.12733,181.284598 5732.83668,202.449661 5699.26847,202.449661 C5654.9497,202.449661 5618.89355,166.392474 5618.89355,122.072659 C5618.89355,77.7520797 5654.9497,41.6948925 5699.26847,41.6948925 C5743.58724,41.6948925 5779.6434,77.7520797 5779.6434,122.072659 C5779.6434,125.494679 5779.40438,129.038095 5778.93244,132.611289 L5784.38638,132.611289 C5784.83006,129.007555 5785.05457,125.464138 5785.05457,122.072659 C5785.05457,74.7683104 5746.57079,36.2831841 5699.26847,36.2831841 M5699.26847,208.625636 C5651.54462,208.625636 5612.71797,169.797697 5612.71797,122.072659 C5612.71797,74.3468568 5651.54462,35.5196812 5699.26847,35.5196812 C5746.99232,35.5196812 5785.81821,74.3468568 5785.81821,122.072659 C5785.81821,125.600042 5785.5769,129.290815 5785.10191,133.041141 L5785.05991,133.374792 L5778.05884,133.374792 L5778.1184,132.941122 C5778.62317,129.255694 5778.87975,125.598515 5778.87975,122.072659 C5778.87975,78.1735333 5743.16571,42.4583954 5699.26847,42.4583954 C5655.37123,42.4583954 5619.65719,78.1735333 5619.65719,122.072659 C5619.65719,165.971784 5655.37123,201.686158 5699.26847,201.686158 C5732.60529,201.686158 5762.67907,180.608898 5774.1024,149.238091 L5774.19404,148.986899 L5781.5273,148.986899 L5781.3593,149.489284 C5769.55109,184.860845 5736.56096,208.625636 5699.26847,208.625636" id="Fill-90" fill="#727272" mask="url(#mask-4)"></path>
                        <path d="M5699.26847,18.7531578 C5642.2992,18.7531578 5595.95219,65.1023639 5595.95219,122.072659 C5595.95219,179.042953 5642.2992,225.392159 5699.26847,225.392159 C5745.58493,225.392159 5786.4444,194.311484 5798.80854,149.750402 L5793.16064,149.750402 C5787.31113,169.554903 5775.00274,187.385749 5758.47598,199.985074 C5741.31846,213.065405 5720.8452,219.979687 5699.26847,219.979687 C5645.28428,219.979687 5601.36413,176.058421 5601.36413,122.072659 C5601.36413,68.0861332 5645.28428,24.1648663 5699.26847,24.1648663 C5753.25267,24.1648663 5797.17205,68.0861332 5797.17205,122.072659 C5797.17205,125.481699 5796.97579,129.025116 5796.58939,132.611289 L5802.04562,132.611289 C5802.403,129.088487 5802.58399,125.54507 5802.58399,122.072659 C5802.58399,65.1023639 5756.23698,18.7531578 5699.26847,18.7531578 M5699.26847,226.155662 C5641.87919,226.155662 5595.18855,179.463643 5595.18855,122.072659 C5595.18855,64.6809103 5641.87919,17.989655 5699.26847,17.989655 C5756.65775,17.989655 5803.34763,64.6809103 5803.34763,122.072659 C5803.34763,125.684027 5803.1529,129.371746 5802.76955,133.032743 L5802.73366,133.374792 L5795.73717,133.374792 L5795.78451,132.950284 C5796.19841,129.248059 5796.40841,125.587826 5796.40841,122.072659 C5796.40841,68.5075868 5752.8319,24.9283692 5699.26847,24.9283692 C5645.70428,24.9283692 5602.12777,68.5075868 5602.12777,122.072659 C5602.12777,175.63773 5645.70428,219.216185 5699.26847,219.216185 C5720.67643,219.216185 5740.99009,212.356111 5758.01322,199.377326 C5774.48652,186.818467 5786.73687,169.020451 5792.50925,149.26176 L5792.58867,148.986899 L5799.80891,148.986899 L5799.67756,149.468669 C5787.38673,194.620703 5746.09581,226.155662 5699.26847,226.155662" id="Fill-91" fill="#727272" mask="url(#mask-4)"></path>
                        <path d="M5699.26847,1.22320797 C5632.63454,1.22320797 5578.42354,55.4357303 5578.42354,122.072735 C5578.42354,188.708976 5632.63454,242.921498 5699.26847,242.921498 C5726.76037,242.921498 5753.66274,233.437266 5775.0203,216.214931 C5795.93571,199.349152 5810.79162,175.762258 5816.89007,149.750478 L5811.32006,149.750478 C5805.25368,174.30015 5790.956,196.543279 5771.03714,212.41116 C5750.42566,228.831053 5725.6088,237.50979 5699.26847,237.50979 C5635.61732,237.50979 5583.83471,185.724443 5583.83471,122.072735 C5583.83471,58.420263 5635.61732,6.63491641 5699.26847,6.63491641 C5762.91962,6.63491641 5814.70223,58.420263 5814.70223,122.072735 C5814.70223,125.470323 5814.53576,129.01374 5814.20739,132.611365 L5819.63155,132.611365 C5819.9561,128.883944 5820.11341,125.432911 5820.11341,122.072735 C5820.11341,55.4357303 5765.90241,1.22320797 5699.26847,1.22320797 M5699.26847,243.685001 C5632.213,243.685001 5577.6599,189.129666 5577.6599,122.072735 C5577.6599,55.0150402 5632.213,0.459705087 5699.26847,0.459705087 C5766.32394,0.459705087 5820.87705,55.0150402 5820.87705,122.072735 C5820.87705,125.560416 5820.70828,129.143535 5820.36159,133.026711 L5820.33028,133.374868 L5813.36815,133.374868 L5813.40786,132.957232 C5813.76066,129.239737 5813.93859,125.577977 5813.93859,122.072735 C5813.93859,58.8409531 5762.49809,7.3984193 5699.26847,7.3984193 C5636.03885,7.3984193 5584.59835,58.8409531 5584.59835,122.072735 C5584.59835,185.303753 5636.03885,236.746287 5699.26847,236.746287 C5725.43393,236.746287 5750.0866,228.124813 5770.56139,211.8141 C5790.42756,195.988213 5804.66491,173.779441 5810.65034,149.27787 L5810.72136,148.986975 L5817.85073,148.986975 L5817.74382,149.454239 C5811.67439,175.815703 5796.67263,199.736248 5775.49987,216.808936 C5754.00791,234.140452 5726.93448,243.685001 5699.26847,243.685001" id="Fill-92" fill="#727272" mask="url(#mask-4)"></path>
                        <path d="M4487.1438,727.847528 L4607.6344,727.847528 C4607.58553,696.040762 4601.38322,665.00437 4589.19778,635.591184 C4576.96269,606.061183 4559.30651,579.636349 4536.71719,557.051933 C4514.12864,534.467518 4487.69973,516.813804 4458.16356,504.582488 C4428.74498,492.399273 4397.70367,486.198102 4365.89108,486.149238 L4365.89108,606.617014 C4397.77851,606.720086 4428.9672,619.688946 4451.51834,642.23595 C4474.06947,664.782954 4487.04147,695.966702 4487.1438,727.847528 L4487.1438,727.847528 Z M4608.39804,728.611031 L4486.38092,728.611031 L4486.38092,728.22928 C4486.38092,696.416405 4473.47765,665.270832 4450.97844,642.775747 C4428.48,620.281425 4397.32796,607.379753 4365.50926,607.379753 L4365.12744,607.379753 L4365.12744,485.384972 L4365.50926,485.384972 C4397.55552,485.384972 4428.82746,491.606757 4458.45603,503.877011 C4488.08384,516.147266 4514.59675,533.855952 4537.25709,556.512137 C4559.91742,579.168321 4577.63012,605.675614 4589.90262,635.299526 C4602.17588,664.922675 4608.39804,696.188881 4608.39804,728.22928 L4608.39804,728.611031 Z" id="Fill-154" fill="#727272" mask="url(#mask-4)"></path>
                        <path d="M4729.65031,727.847528 L4850.14091,727.847528 C4850.09204,696.040762 4843.88973,665.00437 4831.70428,635.591184 C4819.4692,606.061183 4801.81302,579.636349 4779.2237,557.051933 C4756.63515,534.467518 4730.20624,516.813804 4700.67006,504.582488 C4671.25149,492.399273 4640.21018,486.198102 4608.39759,486.149238 L4608.39759,606.617014 C4640.28502,606.720086 4671.47371,619.688946 4694.02484,642.23595 C4716.57598,664.782954 4729.54798,695.966702 4729.65031,727.847528 L4729.65031,727.847528 Z M4850.90455,728.611031 L4728.88743,728.611031 L4728.88743,728.22928 C4728.88743,696.416405 4715.98415,665.270832 4693.48495,642.775747 C4670.98651,620.281425 4639.83447,607.379753 4608.01576,607.379753 L4607.63394,607.379753 L4607.63394,485.384972 L4608.01576,485.384972 C4640.06203,485.384972 4671.33396,491.606757 4700.96254,503.877011 C4730.59035,516.147266 4757.10326,533.855952 4779.7636,556.512137 C4802.42393,579.168321 4820.13662,605.675614 4832.40912,635.299526 C4844.68239,664.922675 4850.90455,696.188881 4850.90455,728.22928 L4850.90455,728.611031 Z" id="Fill-160" fill="#727272" mask="url(#mask-4)"></path>
                        <path d="M4608.39751,727.847299 L4613.80945,727.847299 L4613.80945,596.459906 L4608.39751,596.459906 L4608.39751,727.847299 Z M4607.63387,728.610802 L4614.57309,728.610802 L4614.57309,595.696403 L4607.63387,595.696403 L4607.63387,728.610802 Z" id="Fill-161" fill="#727272" mask="url(#mask-4)"></path>
                        <path d="M4623.44967,727.847299 L4628.86161,727.847299 L4628.86161,596.459906 L4623.44967,596.459906 L4623.44967,727.847299 Z M4622.68603,728.610802 L4629.62525,728.610802 L4629.62525,595.696403 L4622.68603,595.696403 L4622.68603,728.610802 Z" id="Fill-162" fill="#727272" mask="url(#mask-4)"></path>
                        <path d="M4638.50107,727.847299 L4643.91377,727.847299 L4643.91377,596.459906 L4638.50107,596.459906 L4638.50107,727.847299 Z M4637.73743,728.610802 L4644.67741,728.610802 L4644.67741,595.696403 L4637.73743,595.696403 L4637.73743,728.610802 Z" id="Fill-163" fill="#727272" mask="url(#mask-4)"></path>
                        <path d="M4653.5517,727.847299 L4658.96364,727.847299 L4658.96364,596.459906 L4653.5517,596.459906 L4653.5517,727.847299 Z M4652.78806,728.610802 L4659.72728,728.610802 L4659.72728,595.696403 L4652.78806,595.696403 L4652.78806,728.610802 Z" id="Fill-164" fill="#727272" mask="url(#mask-4)"></path>
                        <path d="M4668.60387,727.847299 L4674.0158,727.847299 L4674.0158,596.459906 L4668.60387,596.459906 L4668.60387,727.847299 Z M4667.84022,728.610802 L4674.77944,728.610802 L4674.77944,595.696403 L4667.84022,595.696403 L4667.84022,728.610802 Z" id="Fill-165" fill="#727272" mask="url(#mask-4)"></path>
                        <path d="M4971.77575,486.148551 C4905.12731,486.148551 4850.90409,540.361073 4850.90409,606.998078 C4850.90409,673.635083 4905.12731,727.847605 4971.77575,727.847605 C5038.4242,727.847605 5092.64742,673.635083 5092.64742,606.998078 C5092.64742,540.361073 5038.4242,486.148551 4971.77575,486.148551 M4971.77575,728.611108 C4904.70578,728.611108 4850.14045,674.055773 4850.14045,606.998078 C4850.14045,539.940383 4904.70578,485.385048 4971.77575,485.385048 C5038.84573,485.385048 5093.41106,539.940383 5093.41106,606.998078 C5093.41106,674.055773 5038.84573,728.611108 4971.77575,728.611108" id="Fill-166" fill="#727272" mask="url(#mask-4)"></path>
                        <path d="M5093.41045,486.148551 C5093.45932,517.955317 5099.66239,548.99171 5111.8486,578.404895 C5124.08216,607.934896 5141.7391,634.358967 5164.32766,656.944146 C5186.91621,679.528561 5213.34588,697.182275 5242.88129,709.413591 C5272.29986,721.596807 5303.34118,727.797977 5335.15377,727.846841 L5335.15377,607.379066 C5303.2671,607.276756 5272.07764,594.307133 5249.52728,571.760129 C5226.97538,549.213889 5214.00338,518.029377 5213.90105,486.148551 L5093.41045,486.148551 Z M5335.91741,728.611108 L5335.53559,728.611108 C5303.49009,728.611108 5272.21739,722.389323 5242.58958,710.119068 C5212.96101,697.848813 5186.4481,680.140127 5163.78776,657.483943 C5141.12743,634.827758 5123.4155,608.319701 5111.143,578.696553 C5098.86897,549.073405 5092.6468,517.807198 5092.6468,485.766799 L5092.6468,485.385048 L5214.66393,485.385048 L5214.66393,485.766799 C5214.66393,517.579674 5227.56796,548.726011 5250.06717,571.220333 C5272.56485,593.714655 5303.71689,606.616326 5335.53559,606.616326 L5335.91741,606.616326 L5335.91741,728.611108 Z" id="Fill-167" fill="#727272" mask="url(#mask-4)"></path>
                        <path d="M5269.53571,617.535639 L5274.94841,617.535639 L5274.94841,486.148245 L5269.53571,486.148245 L5269.53571,617.535639 Z M5268.77206,618.299142 L5275.71205,618.299142 L5275.71205,485.384743 L5268.77206,485.384743 L5268.77206,618.299142 Z" id="Fill-168" fill="#727272" mask="url(#mask-4)"></path>
                        <path d="M5284.58787,617.535639 L5289.9998,617.535639 L5289.9998,486.148245 L5284.58787,486.148245 L5284.58787,617.535639 Z M5283.82423,618.299142 L5290.76345,618.299142 L5290.76345,485.384743 L5283.82423,485.384743 L5283.82423,618.299142 Z" id="Fill-169" fill="#727272" mask="url(#mask-4)"></path>
                        <path d="M5299.64003,617.535639 L5305.05197,617.535639 L5305.05197,486.148245 L5299.64003,486.148245 L5299.64003,617.535639 Z M5298.87639,618.299142 L5305.81561,618.299142 L5305.81561,485.384743 L5298.87639,485.384743 L5298.87639,618.299142 Z" id="Fill-170" fill="#727272" mask="url(#mask-4)"></path>
                        <path d="M5314.6899,617.535639 L5320.10184,617.535639 L5320.10184,486.148245 L5314.6899,486.148245 L5314.6899,617.535639 Z M5313.92626,618.299142 L5320.86548,618.299142 L5320.86548,485.384743 L5313.92626,485.384743 L5313.92626,618.299142 Z" id="Fill-171" fill="#727272" mask="url(#mask-4)"></path>
                        <path d="M5329.74206,617.535639 L5335.154,617.535639 L5335.154,486.148245 L5329.74206,486.148245 L5329.74206,617.535639 Z M5328.97842,618.299142 L5335.91764,618.299142 L5335.91764,485.384743 L5328.97842,485.384743 L5328.97842,618.299142 Z" id="Fill-172" fill="#727272" mask="url(#mask-4)"></path>
                        <path d="M5457.17036,727.847299 L5577.6602,727.847299 L5577.6602,607.379524 L5457.17036,607.379524 L5457.17036,727.847299 Z M5456.40748,728.610802 L5578.42461,728.610802 L5578.42461,606.616021 L5456.40748,606.616021 L5456.40748,728.610802 Z" id="Fill-173" fill="#727272" mask="url(#mask-4)"></path>
                        <path d="M5456.78884,486.148551 C5390.1404,486.148551 5335.91718,540.361073 5335.91718,606.998078 C5335.91718,673.635083 5390.1404,727.847605 5456.78884,727.847605 C5523.43729,727.847605 5577.66051,673.635083 5577.66051,606.998078 C5577.66051,540.361073 5523.43729,486.148551 5456.78884,486.148551 M5456.78884,728.611108 C5389.71887,728.611108 5335.15354,674.055773 5335.15354,606.998078 C5335.15354,539.940383 5389.71887,485.385048 5456.78884,485.385048 C5523.85882,485.385048 5578.42415,539.940383 5578.42415,606.998078 C5578.42415,674.055773 5523.85882,728.611108 5456.78884,728.611108" id="Fill-174" fill="#727272" mask="url(#mask-4)"></path>
                        <path d="M5618.84116,727.847299 L5779.74908,727.847299 L5779.74908,486.148245 L5618.84116,486.148245 L5618.84116,727.847299 Z M5618.07752,728.610802 L5780.51273,728.610802 L5780.51273,485.384743 L5618.07752,485.384743 L5618.07752,728.610802 Z" id="Fill-175" fill="#727272" mask="url(#mask-4)"></path>
                        <path d="M5591.89603,609.352415 L5806.69422,609.352415 L5806.69422,523.906517 L5591.89603,523.906517 L5591.89603,609.352415 Z M5591.13239,610.115918 L5807.45786,610.115918 L5807.45786,523.143014 L5591.13239,523.143014 L5591.13239,610.115918 Z" id="Fill-176" fill="#727272" mask="url(#mask-4)"></path>
                        <path d="M5821.46475,617.53625 L6062.19243,617.53625 C6062.51697,613.809592 6062.67428,610.358559 6062.67428,606.998383 C6062.67428,540.361379 6008.46329,486.148856 5941.82859,486.148856 C5875.19389,486.148856 5820.98289,540.361379 5820.98289,606.998383 C5820.98289,610.358559 5821.1402,613.809592 5821.46475,617.53625 L5821.46475,617.53625 Z M6062.89116,618.299753 L5820.76601,618.299753 L5820.73471,617.951596 C5820.38801,614.06842 5820.21925,610.486064 5820.21925,606.998383 C5820.21925,539.940688 5874.77312,485.385353 5941.82859,485.385353 C6008.88482,485.385353 6063.43793,539.940688 6063.43793,606.998383 C6063.43793,610.486064 6063.26916,614.06842 6062.92247,617.951596 L6062.89116,618.299753 Z" id="Fill-177" fill="#727272" mask="url(#mask-4)"></path>
                        <path d="M5941.77574,556.269266 C5913.80427,556.269266 5891.04772,579.026233 5891.04772,606.998689 C5891.04772,634.97038 5913.80427,657.727347 5941.77574,657.727347 C5958.98672,657.727347 5974.80558,649.12496 5984.23504,634.676432 L5977.57531,634.676432 C5968.88888,645.889235 5955.85273,652.315639 5941.77574,652.315639 C5916.78859,652.315639 5896.45966,631.986611 5896.45966,606.998689 C5896.45966,582.010003 5916.78859,561.680975 5941.77574,561.680975 C5966.7629,561.680975 5987.09183,582.010003 5987.09183,606.998689 C5987.09183,610.429871 5986.65655,613.973287 5985.79822,617.537319 L5991.37816,617.537319 C5992.125,614.019098 5992.503,610.474917 5992.503,606.998689 C5992.503,579.026233 5969.74645,556.269266 5941.77574,556.269266 M5941.77574,658.49085 C5913.38274,658.49085 5890.28408,635.391834 5890.28408,606.998689 C5890.28408,578.605543 5913.38274,555.505764 5941.77574,555.505764 C5970.16798,555.505764 5993.26664,578.605543 5993.26664,606.998689 C5993.26664,610.628381 5992.86039,614.329843 5992.06009,618.000765 L5991.99442,618.300822 L5984.82228,618.300822 L5984.94065,617.826687 C5985.86084,614.162636 5986.32819,610.5192 5986.32819,606.998689 C5986.32819,582.431456 5966.34213,562.444478 5941.77574,562.444478 C5917.20936,562.444478 5897.2233,582.431456 5897.2233,606.998689 C5897.2233,631.565157 5917.20936,651.552136 5941.77574,651.552136 C5955.6748,651.552136 5968.54447,645.176887 5977.08429,634.061812 L5977.1996,633.912929 L5985.62869,633.912929 L5985.25603,634.498536 C5975.7357,649.521982 5959.4808,658.49085 5941.77574,658.49085" id="Fill-178" fill="#727272" mask="url(#mask-4)"></path>
                        <path d="M5941.77574,538.73924 C5904.13885,538.73924 5873.51906,569.360287 5873.51906,606.998689 C5873.51906,644.636327 5904.13885,675.257373 5941.77574,675.257373 C5968.79113,675.257373 5993.21853,659.348264 6004.17452,634.676432 L5998.18527,634.676432 C5987.6554,656.048404 5965.5403,669.845665 5941.77574,669.845665 C5907.1224,669.845665 5878.93024,641.652558 5878.93024,606.998689 C5878.93024,572.344056 5907.1224,544.150949 5941.77574,544.150949 C5976.42909,544.150949 6004.62125,572.344056 6004.62125,606.998689 C6004.62125,610.466519 6004.31732,614.009172 6003.71709,617.537319 L6009.2138,617.537319 C6009.75675,614.032841 6010.03318,610.48866 6010.03318,606.998689 C6010.03318,569.360287 5979.41264,538.73924 5941.77574,538.73924 M5941.77574,676.020876 C5903.71808,676.020876 5872.75542,645.05778 5872.75542,606.998689 C5872.75542,568.939597 5903.71808,537.975737 5941.77574,537.975737 C5979.83417,537.975737 6010.79683,568.939597 6010.79683,606.998689 C6010.79683,610.636016 6010.50053,614.329843 6009.91711,617.979387 L6009.86595,618.300822 L6002.80836,618.300822 L6002.88778,617.852646 C6003.53153,614.220662 6003.85761,610.568828 6003.85761,606.998689 C6003.85761,572.764746 5976.00755,544.914452 5941.77574,544.914452 C5907.54393,544.914452 5879.69388,572.764746 5879.69388,606.998689 C5879.69388,641.231867 5907.54393,669.082162 5941.77574,669.082162 C5965.3303,669.082162 5987.24456,655.361252 5997.60413,634.127473 L5997.70875,633.912929 L6005.3406,633.912929 L6005.10998,634.446617 C5994.14942,659.701766 5969.28979,676.020876 5941.77574,676.020876" id="Fill-179" fill="#727272" mask="url(#mask-4)"></path>
                        <path d="M5941.77574,521.20929 C5894.47266,521.20929 5855.98888,559.694417 5855.98888,606.998765 C5855.98888,654.30235 5894.47266,692.787476 5941.77574,692.787476 C5978.56347,692.787476 6011.12519,669.458645 6022.97235,634.676508 L6017.2351,634.676508 C6005.6346,666.210704 5975.34395,687.375768 5941.77574,687.375768 C5897.45697,687.375768 5861.40082,651.31858 5861.40082,606.998765 C5861.40082,562.678186 5897.45697,526.620999 5941.77574,526.620999 C5986.09451,526.620999 6022.15067,562.678186 6022.15067,606.998765 C6022.15067,610.420785 6021.91165,613.964202 6021.43972,617.537395 L6026.89365,617.537395 C6027.33733,613.933662 6027.56184,610.390245 6027.56184,606.998765 C6027.56184,559.694417 5989.07806,521.20929 5941.77574,521.20929 M5941.77574,693.550979 C5894.05189,693.550979 5855.22524,654.723803 5855.22524,606.998765 C5855.22524,559.272963 5894.05189,520.445788 5941.77574,520.445788 C5989.49959,520.445788 6028.32548,559.272963 6028.32548,606.998765 C6028.32548,610.526148 6028.08417,614.216921 6027.60918,617.967247 L6027.56718,618.300898 L6020.56611,618.300898 L6020.62567,617.867229 C6021.13044,614.1818 6021.38702,610.524621 6021.38702,606.998765 C6021.38702,563.09964 5985.67298,527.384502 5941.77574,527.384502 C5897.8785,527.384502 5862.16446,563.09964 5862.16446,606.998765 C5862.16446,650.89789 5897.8785,686.612265 5941.77574,686.612265 C5975.11257,686.612265 6005.18634,665.535004 6016.60967,634.164198 L6016.70131,633.913005 L6024.03457,633.913005 L6023.86657,634.41539 C6012.0576,669.786188 5979.06823,693.550979 5941.77574,693.550979" id="Fill-180" fill="#727272" mask="url(#mask-4)"></path>
                        <path d="M5941.77574,503.679264 C5884.80647,503.679264 5838.45946,550.02847 5838.45946,606.998765 C5838.45946,663.968296 5884.80647,710.317502 5941.77574,710.317502 C5988.0922,710.317502 6028.95167,679.23759 6041.31581,634.676508 L6035.66791,634.676508 C6029.8184,654.481773 6017.51001,672.311856 6000.98325,684.91118 C5983.82573,697.991512 5963.35247,704.905794 5941.77574,704.905794 C5887.79155,704.905794 5843.8714,660.984527 5843.8714,606.998765 C5843.8714,553.01224 5887.79155,509.090973 5941.77574,509.090973 C5995.75994,509.090973 6039.67932,553.01224 6039.67932,606.998765 C6039.67932,610.407805 6039.48307,613.951222 6039.09666,617.537395 L6044.55289,617.537395 C6044.91027,614.014593 6045.09126,610.470413 6045.09126,606.998765 C6045.09126,550.02847 5998.74425,503.679264 5941.77574,503.679264 M5941.77574,711.081005 C5884.38646,711.081005 5837.69582,664.38975 5837.69582,606.998765 C5837.69582,549.607017 5884.38646,502.915761 5941.77574,502.915761 C5999.16502,502.915761 6045.8549,549.607017 6045.8549,606.998765 C6045.8549,610.60937 6045.66017,614.297089 6045.27682,617.958849 L6045.24093,618.300898 L6038.24444,618.300898 L6038.29178,617.876391 C6038.70568,614.173402 6038.91568,610.513932 6038.91568,606.998765 C6038.91568,553.433693 5995.33917,509.854476 5941.77574,509.854476 C5888.21155,509.854476 5844.63504,553.433693 5844.63504,606.998765 C5844.63504,660.563837 5888.21155,704.142291 5941.77574,704.142291 C5963.1837,704.142291 5983.49736,697.282218 6000.52049,684.303432 C6016.99379,671.744573 6029.24414,653.946557 6035.01652,634.187866 L6035.09594,633.913005 L6042.31618,633.913005 L6042.18483,634.394775 C6029.894,679.546809 5988.60308,711.081005 5941.77574,711.081005" id="Fill-181" fill="#727272" mask="url(#mask-4)"></path>
                        <path d="M5941.77574,486.149314 C5875.14181,486.149314 5820.93081,540.361837 5820.93081,606.998841 C5820.93081,673.635083 5875.14181,727.847605 5941.77574,727.847605 C5969.26764,727.847605 5996.17001,718.363372 6017.52757,701.140274 C6038.44298,684.275259 6053.29889,660.688364 6059.39734,634.676584 L6053.82733,634.676584 C6047.76095,659.226256 6033.46327,681.468622 6013.54441,697.337266 C5992.93293,713.757159 5968.11531,722.435896 5941.77574,722.435896 C5878.12459,722.435896 5826.34198,670.65055 5826.34198,606.998841 C5826.34198,543.346369 5878.12459,491.561023 5941.77574,491.561023 C6005.42689,491.561023 6057.2095,543.346369 6057.2095,606.998841 C6057.2095,610.396429 6057.04303,613.939846 6056.71466,617.537472 L6062.13882,617.537472 C6062.46337,613.810051 6062.62068,610.359018 6062.62068,606.998841 C6062.62068,540.361837 6008.40968,486.149314 5941.77574,486.149314 M5941.77574,728.611108 C5874.72027,728.611108 5820.16717,674.055773 5820.16717,606.998841 C5820.16717,539.941147 5874.72027,485.385811 5941.77574,485.385811 C6008.83121,485.385811 6063.38432,539.941147 6063.38432,606.998841 C6063.38432,610.486522 6063.21555,614.069642 6062.86886,617.952817 L6062.83755,618.300975 L6055.87542,618.300975 L6055.91513,617.883338 C6056.26793,614.165843 6056.44586,610.504083 6056.44586,606.998841 C6056.44586,543.767059 6005.00536,492.324526 5941.77574,492.324526 C5878.54612,492.324526 5827.10562,543.767059 5827.10562,606.998841 C5827.10562,670.22986 5878.54612,721.672393 5941.77574,721.672393 C5967.9412,721.672393 5992.59387,713.050919 6013.06866,696.740207 C6032.93483,680.914319 6047.17218,658.705547 6053.15762,634.203976 L6053.22863,633.913081 L6060.358,633.913081 L6060.25109,634.380345 C6054.18166,660.741809 6039.1799,684.662355 6018.00714,701.735043 C5996.51518,719.065795 5969.44175,728.611108 5941.77574,728.611108" id="Fill-182" fill="#727272" mask="url(#mask-4)"></path>
                        <path d="M4366.42257,375.073388 L4607.15025,375.073388 C4607.47404,371.351311 4607.63135,367.901042 4607.63135,364.535521 C4607.63135,297.898516 4553.42035,243.685994 4486.78565,243.685994 C4420.15171,243.685994 4365.94072,297.898516 4365.94072,364.535521 C4365.94072,367.904096 4366.09803,371.354365 4366.42257,375.073388 L4366.42257,375.073388 Z M4607.84899,375.836891 L4365.72384,375.836891 L4365.69253,375.488733 C4365.34584,371.61472 4365.17707,368.031601 4365.17707,364.535521 C4365.17707,297.477826 4419.73095,242.922491 4486.78565,242.922491 C4553.84188,242.922491 4608.39499,297.477826 4608.39499,364.535521 C4608.39499,368.028547 4608.22699,371.611666 4607.88029,375.488733 L4607.84899,375.836891 Z" id="Fill-237" fill="#727272" mask="url(#mask-4)"></path>
                        <path d="M4486.73288,313.806404 C4458.76218,313.806404 4436.00562,336.563371 4436.00562,364.535826 C4436.00562,392.507518 4458.76218,415.264485 4486.73288,415.264485 C4503.94386,415.264485 4519.76348,406.662098 4529.19294,392.213569 L4522.53245,392.213569 C4513.84602,403.426373 4500.80987,409.852777 4486.73288,409.852777 C4461.74573,409.852777 4441.41756,389.523749 4441.41756,364.535826 C4441.41756,339.54714 4461.74573,319.218113 4486.73288,319.218113 C4511.7208,319.218113 4532.04973,339.54714 4532.04973,364.535826 C4532.04973,367.967008 4531.61446,371.510425 4530.75612,375.074457 L4536.33606,375.074457 C4537.0829,371.552418 4537.4609,368.009001 4537.4609,364.535826 C4537.4609,336.563371 4514.70435,313.806404 4486.73288,313.806404 M4486.73288,416.027988 C4458.34065,416.027988 4435.24198,392.928972 4435.24198,364.535826 C4435.24198,336.142681 4458.34065,313.042901 4486.73288,313.042901 C4515.12588,313.042901 4538.22455,336.142681 4538.22455,364.535826 C4538.22455,368.161702 4537.81829,371.863927 4537.01799,375.537903 L4536.95232,375.83796 L4529.78019,375.83796 L4529.89855,375.363824 C4530.81874,371.699774 4531.28609,368.056338 4531.28609,364.535826 C4531.28609,339.968594 4511.29927,319.981616 4486.73288,319.981616 C4462.16726,319.981616 4442.1812,339.968594 4442.1812,364.535826 C4442.1812,389.102295 4462.16726,409.089274 4486.73288,409.089274 C4500.63194,409.089274 4513.50161,402.714025 4522.04143,391.59895 L4522.15674,391.450066 L4530.58659,391.450066 L4530.21393,392.035673 C4520.6936,407.059119 4504.4387,416.027988 4486.73288,416.027988" id="Fill-238" fill="#727272" mask="url(#mask-4)"></path>
                        <path d="M4486.73288,296.276378 C4449.09599,296.276378 4418.4762,326.897425 4418.4762,364.535826 C4418.4762,402.173464 4449.09599,432.794511 4486.73288,432.794511 C4513.74827,432.794511 4538.17644,416.885402 4549.13242,392.213569 L4543.14317,392.213569 C4532.6133,413.585542 4510.49744,427.382803 4486.73288,427.382803 C4452.0803,427.382803 4423.88814,399.189695 4423.88814,364.535826 C4423.88814,329.881194 4452.0803,301.688086 4486.73288,301.688086 C4521.38623,301.688086 4549.57915,329.881194 4549.57915,364.535826 C4549.57915,368.005183 4549.27446,371.547837 4548.675,375.074457 L4554.1717,375.074457 C4554.71465,371.568451 4554.99032,368.024271 4554.99032,364.535826 C4554.99032,326.897425 4524.36978,296.276378 4486.73288,296.276378 M4486.73288,433.558014 C4448.67522,433.558014 4417.71256,402.594918 4417.71256,364.535826 C4417.71256,326.476735 4448.67522,295.512875 4486.73288,295.512875 C4524.79131,295.512875 4555.75397,326.476735 4555.75397,364.535826 C4555.75397,368.171627 4555.45844,371.865454 4554.87501,375.516525 L4554.82385,375.83796 L4547.7655,375.83796 L4547.84492,375.389783 C4548.48867,371.759327 4548.81551,368.107493 4548.81551,364.535826 C4548.81551,330.301884 4520.96546,302.451589 4486.73288,302.451589 C4452.50107,302.451589 4424.65178,330.301884 4424.65178,364.535826 C4424.65178,398.769005 4452.50107,426.6193 4486.73288,426.6193 C4510.28821,426.6193 4532.20246,412.89839 4542.56204,391.664611 L4542.66666,391.450066 L4550.2985,391.450066 L4550.06788,391.983755 C4539.10732,417.238903 4514.24693,433.558014 4486.73288,433.558014" id="Fill-239" fill="#727272" mask="url(#mask-4)"></path>
                        <path d="M4486.73288,278.746428 C4439.43056,278.746428 4400.94679,317.231554 4400.94679,364.535903 C4400.94679,411.839487 4439.43056,450.324614 4486.73288,450.324614 C4523.52137,450.324614 4556.0831,426.995783 4567.93025,392.213646 L4562.19224,392.213646 C4550.5925,423.747842 4520.30185,444.912905 4486.73288,444.912905 C4442.41488,444.912905 4406.35872,408.855718 4406.35872,364.535903 C4406.35872,320.215324 4442.41488,284.158137 4486.73288,284.158137 C4531.05241,284.158137 4567.10857,320.215324 4567.10857,364.535903 C4567.10857,367.957923 4566.86955,371.501339 4566.39762,375.074533 L4571.85155,375.074533 C4572.29523,371.464691 4572.51974,367.921274 4572.51974,364.535903 C4572.51974,317.231554 4534.03597,278.746428 4486.73288,278.746428 M4486.73288,451.088117 C4439.00903,451.088117 4400.18314,412.260941 4400.18314,364.535903 C4400.18314,316.810101 4439.00903,277.982925 4486.73288,277.982925 C4534.45673,277.982925 4573.28338,316.810101 4573.28338,364.535903 C4573.28338,368.057941 4573.04207,371.747951 4572.56709,375.504385 L4572.52509,375.838036 L4565.52401,375.838036 L4565.58358,375.404366 C4566.08834,371.718938 4566.34493,368.061759 4566.34493,364.535903 C4566.34493,320.636777 4530.63088,284.921639 4486.73288,284.921639 C4442.83564,284.921639 4407.12236,320.636777 4407.12236,364.535903 C4407.12236,408.435028 4442.83564,444.149402 4486.73288,444.149402 C4520.07047,444.149402 4550.14425,423.072142 4561.56681,391.701335 L4561.65845,391.450143 L4568.99248,391.450143 L4568.82447,391.952528 C4557.0155,427.323326 4524.02614,451.088117 4486.73288,451.088117" id="Fill-240" fill="#727272" mask="url(#mask-4)"></path>
                        <path d="M4486.73288,261.216402 C4429.76437,261.216402 4383.41737,307.565608 4383.41737,364.535903 C4383.41737,421.505434 4429.76437,467.85464 4486.73288,467.85464 C4533.0501,467.85464 4573.90957,436.774728 4586.27371,392.213646 L4580.62581,392.213646 C4574.77631,412.018147 4562.46715,429.848993 4545.94116,442.448318 C4528.78287,455.528649 4508.30961,462.442932 4486.73288,462.442932 C4432.74869,462.442932 4388.8293,418.521665 4388.8293,364.535903 C4388.8293,310.549377 4432.74869,266.62811 4486.73288,266.62811 C4540.71708,266.62811 4584.63722,310.549377 4584.63722,364.535903 C4584.63722,367.947234 4584.44097,371.49065 4584.0538,375.074533 L4589.51079,375.074533 C4589.86818,371.544859 4590.04916,368.000679 4590.04916,364.535903 C4590.04916,307.565608 4543.70216,261.216402 4486.73288,261.216402 M4486.73288,468.618143 C4429.3436,468.618143 4382.65372,421.926887 4382.65372,364.535903 C4382.65372,307.144154 4429.3436,260.452899 4486.73288,260.452899 C4544.12216,260.452899 4590.8128,307.144154 4590.8128,364.535903 C4590.8128,368.139636 4590.61807,371.827355 4590.23473,375.495987 L4590.19883,375.838036 L4583.20081,375.838036 L4583.24892,375.413528 C4583.66358,371.713593 4583.87358,368.05336 4583.87358,364.535903 C4583.87358,310.970831 4540.29707,267.391613 4486.73288,267.391613 C4433.16945,267.391613 4389.59295,310.970831 4389.59295,364.535903 C4389.59295,418.100975 4433.16945,461.679429 4486.73288,461.679429 C4508.14084,461.679429 4528.4545,454.819355 4545.47839,441.84057 C4561.95169,429.281711 4574.20205,411.483695 4579.97442,391.725004 L4580.05384,391.450143 L4587.27408,391.450143 L4587.14274,391.931913 C4574.85191,437.083947 4533.56098,468.618143 4486.73288,468.618143" id="Fill-241" fill="#727272" mask="url(#mask-4)"></path>
                        <path d="M4486.73288,243.686376 C4420.09895,243.686376 4365.88795,297.898898 4365.88795,364.535903 C4365.88795,431.172144 4420.09895,485.384666 4486.73288,485.384666 C4514.22478,485.384666 4541.12792,475.900433 4562.48548,458.677335 C4583.40089,441.81232 4598.25679,418.225425 4604.35524,392.213646 L4598.78523,392.213646 C4592.71886,416.763317 4578.42117,439.005683 4558.50155,454.874327 C4537.89007,471.29422 4513.07321,479.972958 4486.73288,479.972958 C4423.0825,479.972958 4371.29988,428.187611 4371.29988,364.535903 C4371.29988,300.883431 4423.0825,249.098084 4486.73288,249.098084 C4550.38403,249.098084 4602.16664,300.883431 4602.16664,364.535903 C4602.16664,367.930436 4602.00017,371.474617 4601.67257,375.074533 L4607.09672,375.074533 C4607.42127,371.347112 4607.57858,367.896079 4607.57858,364.535903 C4607.57858,297.898898 4553.36758,243.686376 4486.73288,243.686376 M4486.73288,486.148169 C4419.67741,486.148169 4365.12431,431.592834 4365.12431,364.535903 C4365.12431,297.478208 4419.67741,242.922873 4486.73288,242.922873 C4553.78911,242.922873 4608.34222,297.478208 4608.34222,364.535903 C4608.34222,368.023584 4608.17346,371.606703 4607.82676,375.489879 L4607.79545,375.838036 L4600.83332,375.838036 L4600.87303,375.4204 C4601.22507,371.700614 4601.403,368.03809 4601.403,364.535903 C4601.403,301.304121 4549.9625,249.861587 4486.73288,249.861587 C4423.50403,249.861587 4372.06353,301.304121 4372.06353,364.535903 C4372.06353,427.766921 4423.50403,479.209455 4486.73288,479.209455 C4512.89834,479.209455 4537.55101,470.58798 4558.0258,454.277268 C4577.89197,438.45138 4592.13009,416.241845 4598.11552,391.741037 L4598.18654,391.450143 L4605.31591,391.450143 L4605.209,391.917407 C4599.13956,418.278871 4584.1378,442.199416 4562.96504,459.272104 C4541.47232,476.602856 4514.39889,486.148169 4486.73288,486.148169" id="Fill-242" fill="#727272" mask="url(#mask-4)"></path>
                        <path d="M4648.81712,485.384743 L4809.72504,485.384743 L4809.72504,243.685689 L4648.81712,243.685689 L4648.81712,485.384743 Z M4648.05271,486.148245 L4810.48792,486.148245 L4810.48792,242.922186 L4648.05271,242.922186 L4648.05271,486.148245 Z" id="Fill-243" fill="#727272" mask="url(#mask-4)"></path>
                        <path d="M4972.15834,485.384666 L5092.64894,485.384666 C5092.60007,453.5779 5086.39776,422.541507 5074.21232,393.128322 C5061.97723,363.598321 5044.32105,337.173486 5021.73173,314.589071 C4999.14318,292.004656 4972.71427,274.350942 4943.1781,262.119626 C4913.75953,249.93641 4882.71821,243.73524 4850.90562,243.686376 L4850.90562,364.154151 C4882.79305,364.257224 4913.98175,377.226084 4936.53288,399.773088 C4959.08401,422.320091 4972.05601,453.50384 4972.15834,485.384666 L4972.15834,485.384666 Z M5093.41259,486.148169 L4971.39546,486.148169 L4971.39546,485.766418 C4971.39546,453.953543 4958.49219,422.80797 4935.99298,400.312884 C4913.49454,377.818562 4882.3425,364.916891 4850.5238,364.916891 L4850.14198,364.916891 L4850.14198,242.922109 L4850.5238,242.922109 C4882.57007,242.922109 4913.842,249.143894 4943.47057,261.414149 C4973.09838,273.684404 4999.6113,291.39309 5022.27163,314.049274 C5044.93196,336.705459 5062.64466,363.212752 5074.91716,392.836664 C5087.19042,422.459812 5093.41259,453.726019 5093.41259,485.766418 L5093.41259,486.148169 Z" id="Fill-244" fill="#727272" mask="url(#mask-4)"></path>
                        <path d="M4850.90524,485.384743 L4856.31717,485.384743 L4856.31717,353.997349 L4850.90524,353.997349 L4850.90524,485.384743 Z M4850.1416,486.148245 L4857.08082,486.148245 L4857.08082,353.233846 L4850.1416,353.233846 L4850.1416,486.148245 Z" id="Fill-245" fill="#727272" mask="url(#mask-4)"></path>
                        <path d="M4865.9574,485.384743 L4871.36934,485.384743 L4871.36934,353.997349 L4865.9574,353.997349 L4865.9574,485.384743 Z M4865.19376,486.148245 L4872.13298,486.148245 L4872.13298,353.233846 L4865.19376,353.233846 L4865.19376,486.148245 Z" id="Fill-246" fill="#727272" mask="url(#mask-4)"></path>
                        <path d="M4881.0088,485.384743 L4886.4215,485.384743 L4886.4215,353.997349 L4881.0088,353.997349 L4881.0088,485.384743 Z M4880.24516,486.148245 L4887.18514,486.148245 L4887.18514,353.233846 L4880.24516,353.233846 L4880.24516,486.148245 Z" id="Fill-247" fill="#727272" mask="url(#mask-4)"></path>
                        <path d="M4896.05943,485.384743 L4901.47137,485.384743 L4901.47137,353.997349 L4896.05943,353.997349 L4896.05943,485.384743 Z M4895.29579,486.148245 L4902.23501,486.148245 L4902.23501,353.233846 L4895.29579,353.233846 L4895.29579,486.148245 Z" id="Fill-248" fill="#727272" mask="url(#mask-4)"></path>
                        <path d="M4911.11159,485.384743 L4916.52353,485.384743 L4916.52353,353.997349 L4911.11159,353.997349 L4911.11159,485.384743 Z M4910.34795,486.148245 L4917.28717,486.148245 L4917.28717,353.233846 L4910.34795,353.233846 L4910.34795,486.148245 Z" id="Fill-249" fill="#727272" mask="url(#mask-4)"></path>
                        <path d="M5214.66485,485.384666 L5335.15545,485.384666 C5335.10658,453.5779 5328.90427,422.541507 5316.71882,393.128322 C5304.48374,363.598321 5286.82756,337.173486 5264.23824,314.589071 C5241.64969,292.004656 5215.22078,274.350942 5185.68461,262.119626 C5156.26603,249.93641 5125.22472,243.73524 5093.41213,243.686376 L5093.41213,364.154151 C5125.29956,364.257224 5156.48825,377.226084 5179.03939,399.773088 C5201.59052,422.320091 5214.56252,453.50384 5214.66485,485.384666 L5214.66485,485.384666 Z M5335.91909,486.148169 L5213.90197,486.148169 L5213.90197,485.766418 C5213.90197,453.953543 5200.9987,422.80797 5178.49949,400.312884 C5156.00105,377.818562 5124.84901,364.916891 5093.03031,364.916891 L5092.64848,364.916891 L5092.64848,242.922109 L5093.03031,242.922109 C5125.07657,242.922109 5156.34851,249.143894 5185.97708,261.414149 C5215.60489,273.684404 5242.1178,291.39309 5264.77814,314.049274 C5287.43847,336.705459 5305.15116,363.212752 5317.42367,392.836664 C5329.69693,422.459812 5335.91909,453.726019 5335.91909,485.766418 L5335.91909,486.148169 Z" id="Fill-250" fill="#727272" mask="url(#mask-4)"></path>
                        <path d="M5093.4122,485.384743 L5098.82414,485.384743 L5098.82414,353.997349 L5093.4122,353.997349 L5093.4122,485.384743 Z M5092.64856,486.148245 L5099.58778,486.148245 L5099.58778,353.233846 L5092.64856,353.233846 L5092.64856,486.148245 Z" id="Fill-251" fill="#727272" mask="url(#mask-4)"></path>
                        <path d="M5108.46437,485.384743 L5113.8763,485.384743 L5113.8763,353.997349 L5108.46437,353.997349 L5108.46437,485.384743 Z M5107.70072,486.148245 L5114.63994,486.148245 L5114.63994,353.233846 L5107.70072,353.233846 L5107.70072,486.148245 Z" id="Fill-252" fill="#727272" mask="url(#mask-4)"></path>
                        <path d="M5123.51576,485.384743 L5128.92846,485.384743 L5128.92846,353.997349 L5123.51576,353.997349 L5123.51576,485.384743 Z M5122.75136,486.148245 L5129.69134,486.148245 L5129.69134,353.233846 L5122.75136,353.233846 L5122.75136,486.148245 Z" id="Fill-253" fill="#727272" mask="url(#mask-4)"></path>
                        <path d="M5138.5664,485.384743 L5143.97833,485.384743 L5143.97833,353.997349 L5138.5664,353.997349 L5138.5664,485.384743 Z M5137.80199,486.148245 L5144.74121,486.148245 L5144.74121,353.233846 L5137.80199,353.233846 L5137.80199,486.148245 Z" id="Fill-254" fill="#727272" mask="url(#mask-4)"></path>
                        <path d="M5153.6178,485.384743 L5159.02973,485.384743 L5159.02973,353.997349 L5153.6178,353.997349 L5153.6178,485.384743 Z M5152.85415,486.148245 L5159.79337,486.148245 L5159.79337,353.233846 L5152.85415,353.233846 L5152.85415,486.148245 Z" id="Fill-255" fill="#727272" mask="url(#mask-4)"></path>
                        <path d="M5456.7903,243.685689 C5390.14185,243.685689 5335.91863,297.898211 5335.91863,364.535216 C5335.91863,431.17222 5390.14185,485.384743 5456.7903,485.384743 C5523.43874,485.384743 5577.66196,431.17222 5577.66196,364.535216 C5577.66196,297.898211 5523.43874,243.685689 5456.7903,243.685689 M5456.7903,486.148245 C5389.72032,486.148245 5335.15499,431.59291 5335.15499,364.535216 C5335.15499,297.477521 5389.72032,242.922186 5456.7903,242.922186 C5523.86027,242.922186 5578.4256,297.477521 5578.4256,364.535216 C5578.4256,431.59291 5523.86027,486.148245 5456.7903,486.148245" id="Fill-256" fill="#727272" mask="url(#mask-4)"></path>
                        <path d="M5578.42499,243.685689 C5578.47386,275.492455 5584.67693,306.528847 5596.86314,335.942033 C5609.0967,365.472034 5626.75365,391.896105 5649.3422,414.481284 C5671.93075,437.065699 5698.36042,454.719413 5727.89583,466.950729 C5757.31441,479.133944 5788.35572,485.335115 5820.16831,485.383979 L5820.16831,364.916203 C5788.28165,364.813894 5757.09219,351.844271 5734.54182,329.297267 C5711.98992,306.751027 5699.01792,275.566515 5698.91559,243.685689 L5578.42499,243.685689 Z M5820.93195,486.148245 L5820.55013,486.148245 C5788.50463,486.148245 5757.23193,479.92646 5727.60412,467.656206 C5697.97555,455.385951 5671.46264,437.677265 5648.8023,415.02108 C5626.14197,392.364896 5608.43004,365.856839 5596.15754,336.233691 C5583.88351,306.610542 5577.66135,275.344336 5577.66135,243.303937 L5577.66135,242.922186 L5699.67847,242.922186 L5699.67847,243.303937 C5699.67847,275.116812 5712.58251,306.263148 5735.08171,328.75747 C5757.57939,351.251792 5788.73143,364.153464 5820.55013,364.153464 L5820.93195,364.153464 L5820.93195,486.148245 Z" id="Fill-257" fill="#727272" mask="url(#mask-4)"></path>
                        <path d="M5754.5504,375.073082 L5759.9631,375.073082 L5759.9631,243.685689 L5754.5504,243.685689 L5754.5504,375.073082 Z M5753.78676,375.836585 L5760.72674,375.836585 L5760.72674,242.922186 L5753.78676,242.922186 L5753.78676,375.836585 Z" id="Fill-258" fill="#727272" mask="url(#mask-4)"></path>
                        <path d="M5769.60256,375.073082 L5775.0145,375.073082 L5775.0145,243.685689 L5769.60256,243.685689 L5769.60256,375.073082 Z M5768.83892,375.836585 L5775.77814,375.836585 L5775.77814,242.922186 L5768.83892,242.922186 L5768.83892,375.836585 Z" id="Fill-259" fill="#727272" mask="url(#mask-4)"></path>
                        <path d="M5784.65472,375.073082 L5790.06666,375.073082 L5790.06666,243.685689 L5784.65472,243.685689 L5784.65472,375.073082 Z M5783.89108,375.836585 L5790.8303,375.836585 L5790.8303,242.922186 L5783.89108,242.922186 L5783.89108,375.836585 Z" id="Fill-260" fill="#727272" mask="url(#mask-4)"></path>
                        <path d="M5799.7046,375.073082 L5805.11653,375.073082 L5805.11653,243.685689 L5799.7046,243.685689 L5799.7046,375.073082 Z M5798.94095,375.836585 L5805.88017,375.836585 L5805.88017,242.922186 L5798.94095,242.922186 L5798.94095,375.836585 Z" id="Fill-261" fill="#727272" mask="url(#mask-4)"></path>
                        <path d="M5814.75676,375.073082 L5820.16869,375.073082 L5820.16869,243.685689 L5814.75676,243.685689 L5814.75676,375.073082 Z M5813.99311,375.836585 L5820.93234,375.836585 L5820.93234,242.922186 L5813.99311,242.922186 L5813.99311,375.836585 Z" id="Fill-262" fill="#727272" mask="url(#mask-4)"></path>
                        <path d="M5942.18506,485.384743 L6062.67489,485.384743 L6062.67489,364.916967 L5942.18506,364.916967 L5942.18506,485.384743 Z M5941.42141,486.148245 L6063.43854,486.148245 L6063.43854,364.153464 L5941.42141,364.153464 L5941.42141,486.148245 Z" id="Fill-263" fill="#727272" mask="url(#mask-4)"></path>
                        <path d="M5941.80339,243.685689 C5875.15494,243.685689 5820.93173,297.898211 5820.93173,364.535216 C5820.93173,431.17222 5875.15494,485.384743 5941.80339,485.384743 C6008.45183,485.384743 6062.67505,431.17222 6062.67505,364.535216 C6062.67505,297.898211 6008.45183,243.685689 5941.80339,243.685689 M5941.80339,486.148245 C5874.73341,486.148245 5820.16808,431.59291 5820.16808,364.535216 C5820.16808,297.477521 5874.73341,242.922186 5941.80339,242.922186 C6008.87336,242.922186 6063.43869,297.477521 6063.43869,364.535216 C6063.43869,431.59291 6008.87336,486.148245 5941.80339,486.148245" id="Fill-264" fill="#727272" mask="url(#mask-4)"></path>
                        <path d="M5861.34965,242.921422 L6022.25758,242.921422 L6022.25758,1.22236812 L5861.34965,1.22236812 L5861.34965,242.921422 Z M5860.58601,243.684925 L6023.02122,243.684925 L6023.02122,0.458865233 L5860.58601,0.458865233 L5860.58601,243.684925 Z" id="Fill-280" fill="#727272" mask="url(#mask-4)"></path>
                        <path d="M4487.14303,970.310773 L4607.63364,970.310773 C4607.58476,938.504006 4601.38246,907.46685 4589.19701,878.054429 C4576.96269,848.523664 4559.30574,822.099593 4536.71643,799.515177 C4514.12788,776.929999 4487.69897,759.277048 4458.16279,747.044969 C4428.74422,734.861753 4397.70291,728.660583 4365.89032,728.611719 L4365.89032,849.080258 C4397.77774,849.182567 4428.9672,862.15219 4451.51757,884.698431 C4474.06871,907.245434 4487.04071,938.429946 4487.14303,970.310773 L4487.14303,970.310773 Z M4608.39728,971.074275 L4486.38016,971.074275 L4486.38016,970.692524 C4486.38016,938.880413 4473.47688,907.733313 4450.97768,885.238227 C4428.48,862.743905 4397.3272,849.842997 4365.50849,849.842997 L4365.12667,849.842997 L4365.12667,727.847452 L4365.50849,727.847452 C4397.55476,727.847452 4428.82669,734.069237 4458.45527,746.339492 C4488.08308,758.609747 4514.59599,776.319196 4537.25632,798.975381 C4559.91666,821.631565 4577.62935,848.138859 4589.90185,877.762007 C4602.17512,907.385155 4608.39728,938.651362 4608.39728,970.692524 L4608.39728,971.074275 Z" id="Fill-354" fill="#727272" mask="url(#mask-4)"></path>
                        <path d="M4729.26848,728.611031 C4662.62004,728.611031 4608.39682,782.824317 4608.39682,849.461322 C4608.39682,916.097563 4662.62004,970.310849 4729.26848,970.310849 C4795.91693,970.310849 4850.14015,916.097563 4850.14015,849.461322 C4850.14015,782.824317 4795.91693,728.611031 4729.26848,728.611031 M4729.26848,971.074352 C4662.19851,971.074352 4607.63318,916.519017 4607.63318,849.461322 C4607.63318,782.403627 4662.19851,727.847528 4729.26848,727.847528 C4796.33846,727.847528 4850.90379,782.403627 4850.90379,849.461322 C4850.90379,916.519017 4796.33846,971.074352 4729.26848,971.074352" id="Fill-360" fill="#727272" mask="url(#mask-4)"></path>
                        <path d="M4850.90318,728.611031 C4850.95205,760.417798 4857.15512,791.45419 4869.34133,820.867375 C4881.57489,850.396613 4899.23183,876.822211 4921.82039,899.406627 C4944.40894,921.991805 4970.83861,939.644756 5000.37402,951.876835 C5029.79259,964.060051 5060.83391,970.261221 5092.6465,970.310849 L5092.6465,849.84231 C5060.75983,849.74 5029.57037,836.770377 5007.02,814.22261 C4984.46811,791.67637 4971.49611,760.492621 4971.39378,728.611031 L4850.90318,728.611031 Z M5093.41014,971.074352 L5093.02832,971.074352 C5060.98282,971.074352 5029.71012,964.852567 5000.08231,952.582312 C4970.45374,940.312057 4943.94082,922.602608 4921.28049,899.946423 C4898.62016,877.290238 4880.90823,850.782182 4868.63572,821.159033 C4856.3617,791.535885 4850.13953,760.269678 4850.13953,728.22928 L4850.13953,727.847528 L4972.15666,727.847528 L4972.15666,728.22928 C4972.15666,760.042155 4985.06069,791.188491 5007.5599,813.682813 C5030.05758,836.177899 5061.20962,849.07957 5093.02832,849.07957 L5093.41014,849.07957 L5093.41014,971.074352 Z" id="Fill-361" fill="#727272" mask="url(#mask-4)"></path>
                        <path d="M5027.02874,859.99896 L5032.44144,859.99896 L5032.44144,728.611566 L5027.02874,728.611566 L5027.02874,859.99896 Z M5026.2651,860.762463 L5033.20508,860.762463 L5033.20508,727.848063 L5026.2651,727.848063 L5026.2651,860.762463 Z" id="Fill-362" fill="#727272" mask="url(#mask-4)"></path>
                        <path d="M5042.0809,859.99896 L5047.49284,859.99896 L5047.49284,728.611566 L5042.0809,728.611566 L5042.0809,859.99896 Z M5041.31726,860.762463 L5048.25648,860.762463 L5048.25648,727.848063 L5041.31726,727.848063 L5041.31726,860.762463 Z" id="Fill-363" fill="#727272" mask="url(#mask-4)"></path>
                        <path d="M5057.13307,859.99896 L5062.545,859.99896 L5062.545,728.611566 L5057.13307,728.611566 L5057.13307,859.99896 Z M5056.36942,860.762463 L5063.30864,860.762463 L5063.30864,727.848063 L5056.36942,727.848063 L5056.36942,860.762463 Z" id="Fill-364" fill="#727272" mask="url(#mask-4)"></path>
                        <path d="M5072.18294,859.99896 L5077.59564,859.99896 L5077.59564,728.611566 L5072.18294,728.611566 L5072.18294,859.99896 Z M5071.41929,860.762463 L5078.35928,860.762463 L5078.35928,727.848063 L5071.41929,727.848063 L5071.41929,860.762463 Z" id="Fill-365" fill="#727272" mask="url(#mask-4)"></path>
                        <path d="M5087.2351,859.99896 L5092.64703,859.99896 L5092.64703,728.611566 L5087.2351,728.611566 L5087.2351,859.99896 Z M5086.47146,860.762463 L5093.41068,860.762463 L5093.41068,727.848063 L5086.47146,727.848063 L5086.47146,860.762463 Z" id="Fill-366" fill="#727272" mask="url(#mask-4)"></path>
                        <path d="M5214.2815,728.611031 C5147.63305,728.611031 5093.40984,782.824317 5093.40984,849.461322 C5093.40984,916.097563 5147.63305,970.310849 5214.2815,970.310849 C5280.92994,970.310849 5335.15316,916.097563 5335.15316,849.461322 C5335.15316,782.824317 5280.92994,728.611031 5214.2815,728.611031 M5214.2815,971.074352 C5147.21152,971.074352 5092.64619,916.519017 5092.64619,849.461322 C5092.64619,782.403627 5147.21152,727.847528 5214.2815,727.847528 C5281.35147,727.847528 5335.9168,782.403627 5335.9168,849.461322 C5335.9168,916.519017 5281.35147,971.074352 5214.2815,971.074352" id="Fill-368" fill="#727272" mask="url(#mask-4)"></path>
                        <path d="M5376.3342,970.31062 L5537.24212,970.31062 L5537.24212,728.610802 L5376.3342,728.610802 L5376.3342,970.31062 Z M5375.57055,971.074123 L5538.00576,971.074123 L5538.00576,727.847299 L5375.57055,727.847299 L5375.57055,971.074123 Z" id="Fill-369" fill="#727272" mask="url(#mask-4)"></path>
                        <path d="M5349.38906,851.814972 L5564.18725,851.814972 L5564.18725,766.369074 L5349.38906,766.369074 L5349.38906,851.814972 Z M5348.62542,852.578475 L5564.95089,852.578475 L5564.95089,765.605571 L5348.62542,765.605571 L5348.62542,852.578475 Z" id="Fill-370" fill="#727272" mask="url(#mask-4)"></path>
                        <path d="M5578.95748,859.998731 L5819.68515,859.998731 C5820.0097,856.272073 5820.16701,852.821803 5820.16701,849.460864 C5820.16701,782.824623 5765.95602,728.6121 5699.32132,728.6121 C5632.68662,728.6121 5578.47562,782.824623 5578.47562,849.460864 C5578.47562,852.821803 5578.63293,856.272073 5578.95748,859.998731 L5578.95748,859.998731 Z M5820.38389,860.762233 L5578.25874,860.762233 L5578.22743,860.41484 C5577.88074,856.531664 5577.71198,852.949308 5577.71198,849.460864 C5577.71198,782.403932 5632.26585,727.848597 5699.32132,727.848597 C5766.37755,727.848597 5820.93066,782.403932 5820.93066,849.460864 C5820.93066,852.949308 5820.76189,856.531664 5820.4152,860.41484 L5820.38389,860.762233 Z" id="Fill-371" fill="#727272" mask="url(#mask-4)"></path>
                        <path d="M5699.26847,798.732129 C5671.297,798.732129 5648.54045,821.489096 5648.54045,849.460787 C5648.54045,877.433243 5671.297,900.19021 5699.26847,900.19021 C5716.47945,900.19021 5732.29831,891.587059 5741.72777,877.13853 L5735.06804,877.13853 C5726.38161,888.352097 5713.3447,894.778501 5699.26847,894.778501 C5674.28132,894.778501 5653.95239,874.449473 5653.95239,849.460787 C5653.95239,824.472865 5674.28132,804.143837 5699.26847,804.143837 C5724.25563,804.143837 5744.58456,824.472865 5744.58456,849.460787 C5744.58456,852.892733 5744.14928,856.435386 5743.29095,860.000181 L5748.87088,860.000181 C5749.61773,856.481196 5749.99573,852.937016 5749.99573,849.460787 C5749.99573,821.489096 5727.23918,798.732129 5699.26847,798.732129 M5699.26847,900.953712 C5670.87547,900.953712 5647.77681,877.853933 5647.77681,849.460787 C5647.77681,821.068406 5670.87547,797.968626 5699.26847,797.968626 C5727.66071,797.968626 5750.75937,821.068406 5750.75937,849.460787 C5750.75937,853.09048 5750.35312,856.792706 5749.55282,860.463627 L5749.48714,860.763684 L5742.31501,860.763684 L5742.43338,860.288785 C5743.35357,856.625498 5743.82092,852.982826 5743.82092,849.460787 C5743.82092,824.894319 5723.83486,804.90734 5699.26847,804.90734 C5674.70209,804.90734 5654.71603,824.894319 5654.71603,849.460787 C5654.71603,874.02802 5674.70209,894.014998 5699.26847,894.014998 C5713.16753,894.014998 5726.0372,887.639749 5734.57702,876.524674 L5734.69233,876.375028 L5743.12142,876.375028 L5742.74876,876.961398 C5733.22843,891.984844 5716.97353,900.953712 5699.26847,900.953712" id="Fill-372" fill="#727272" mask="url(#mask-4)"></path>
                        <path d="M5699.26847,781.201797 C5661.63158,781.201797 5631.01179,811.822844 5631.01179,849.461246 C5631.01179,887.099647 5661.63158,917.71993 5699.26847,917.71993 C5726.28386,917.71993 5750.71203,901.810821 5761.66725,877.138989 L5755.678,877.138989 C5745.14813,898.510961 5723.03303,912.308222 5699.26847,912.308222 C5664.61513,912.308222 5636.42297,884.115878 5636.42297,849.461246 C5636.42297,814.806613 5664.61513,786.613506 5699.26847,786.613506 C5733.92181,786.613506 5762.11398,814.806613 5762.11398,849.461246 C5762.11398,852.929076 5761.81005,856.471729 5761.20982,860.000639 L5766.70652,860.000639 C5767.24947,856.495398 5767.52591,852.951217 5767.52591,849.461246 C5767.52591,811.822844 5736.90537,781.201797 5699.26847,781.201797 M5699.26847,918.483433 C5661.21081,918.483433 5630.24815,887.519574 5630.24815,849.461246 C5630.24815,811.40139 5661.21081,780.438294 5699.26847,780.438294 C5737.3269,780.438294 5768.28956,811.40139 5768.28956,849.461246 C5768.28956,853.098573 5767.99326,856.7924 5767.40984,860.442707 L5767.35868,860.764142 L5760.30109,860.764142 L5760.38051,860.315966 C5761.02426,856.683219 5761.35033,853.031385 5761.35033,849.461246 C5761.35033,815.228067 5733.50028,787.377008 5699.26847,787.377008 C5665.03666,787.377008 5637.18661,815.228067 5637.18661,849.461246 C5637.18661,883.694424 5665.03666,911.544719 5699.26847,911.544719 C5722.82303,911.544719 5744.73729,897.824572 5755.09686,876.59003 L5755.20148,876.375486 L5762.83333,876.375486 L5762.60271,876.909174 C5751.64214,902.164323 5726.78252,918.483433 5699.26847,918.483433" id="Fill-373" fill="#727272" mask="url(#mask-4)"></path>
                        <path d="M5699.26847,763.672153 C5651.96539,763.672153 5613.48161,802.156516 5613.48161,849.460864 C5613.48161,896.765212 5651.96539,935.250338 5699.26847,935.250338 C5736.0562,935.250338 5768.61792,911.921508 5780.46508,877.138607 L5774.72783,877.138607 C5763.12733,908.672803 5732.83668,929.83863 5699.26847,929.83863 C5654.9497,929.83863 5618.89355,893.781443 5618.89355,849.460864 C5618.89355,805.140285 5654.9497,769.083861 5699.26847,769.083861 C5743.58724,769.083861 5779.6434,805.140285 5779.6434,849.460864 C5779.6434,852.883647 5779.40438,856.426301 5778.93244,860.000258 L5784.38638,860.000258 C5784.83006,856.39576 5785.05457,852.852344 5785.05457,849.460864 C5785.05457,802.156516 5746.57079,763.672153 5699.26847,763.672153 M5699.26847,936.013841 C5651.54462,936.013841 5612.71797,897.185902 5612.71797,849.460864 C5612.71797,801.735825 5651.54462,762.90865 5699.26847,762.90865 C5746.99232,762.90865 5785.81821,801.735825 5785.81821,849.460864 C5785.81821,852.988247 5785.5769,856.67902 5785.10191,860.43011 L5785.05991,860.76376 L5778.05884,860.76376 L5778.1184,860.330091 C5778.62317,856.644662 5778.87975,852.98672 5778.87975,849.460864 C5778.87975,805.561738 5743.16571,769.847364 5699.26847,769.847364 C5655.37123,769.847364 5619.65719,805.561738 5619.65719,849.460864 C5619.65719,893.359989 5655.37123,929.075127 5699.26847,929.075127 C5732.60529,929.075127 5762.67907,907.997103 5774.1024,876.626296 L5774.19404,876.375104 L5781.5273,876.375104 L5781.3593,876.877489 C5769.55109,912.24905 5736.56096,936.013841 5699.26847,936.013841" id="Fill-374" fill="#727272" mask="url(#mask-4)"></path>
                        <path d="M5699.26847,746.142126 C5642.2992,746.142126 5595.95219,792.490569 5595.95219,849.460864 C5595.95219,906.431158 5642.2992,952.781128 5699.26847,952.781128 C5745.58493,952.781128 5786.4444,921.700453 5798.80854,877.138607 L5793.16064,877.138607 C5787.31113,896.943872 5775.00274,914.773954 5758.47598,927.373279 C5741.31846,940.454374 5720.8452,947.368656 5699.26847,947.368656 C5645.28428,947.368656 5601.36413,903.447389 5601.36413,849.460864 C5601.36413,795.474338 5645.28428,751.553835 5699.26847,751.553835 C5753.25267,751.553835 5797.17205,795.474338 5797.17205,849.460864 C5797.17205,852.869904 5796.97579,856.414085 5796.58939,860.000258 L5802.04562,860.000258 C5802.403,856.477455 5802.58399,852.933275 5802.58399,849.460864 C5802.58399,792.490569 5756.23698,746.142126 5699.26847,746.142126 M5699.26847,953.544631 C5641.87919,953.544631 5595.18855,906.852612 5595.18855,849.460864 C5595.18855,792.069879 5641.87919,745.378624 5699.26847,745.378624 C5756.65775,745.378624 5803.34763,792.069879 5803.34763,849.460864 C5803.34763,853.072232 5803.1529,856.759951 5802.76955,860.421711 L5802.73366,860.76376 L5795.73717,860.76376 L5795.78451,860.339253 C5796.19841,856.637027 5796.40841,852.976795 5796.40841,849.460864 C5796.40841,795.895792 5752.8319,752.317338 5699.26847,752.317338 C5645.70428,752.317338 5602.12777,795.895792 5602.12777,849.460864 C5602.12777,903.025936 5645.70428,946.605153 5699.26847,946.605153 C5720.67643,946.605153 5740.99009,939.744316 5758.01322,926.766294 C5774.48652,914.207435 5786.73687,896.408656 5792.50925,876.649965 L5792.58867,876.375104 L5799.80891,876.375104 L5799.67756,876.856874 C5787.38597,922.009671 5746.09581,953.544631 5699.26847,953.544631" id="Fill-375" fill="#727272" mask="url(#mask-4)"></path>
                        <path d="M5699.26847,728.612177 C5632.63454,728.612177 5578.42354,782.824699 5578.42354,849.46094 C5578.42354,916.097945 5632.63454,970.310467 5699.26847,970.310467 C5726.76037,970.310467 5753.66274,960.826234 5775.0203,943.6039 C5795.93571,926.738121 5810.79162,903.151226 5816.89007,877.138683 L5811.32006,877.138683 C5805.25368,901.689118 5790.956,923.931484 5771.03714,939.800128 C5750.42566,956.219258 5725.60804,964.898759 5699.26847,964.898759 C5635.61732,964.898759 5583.83471,913.113412 5583.83471,849.46094 C5583.83471,785.809232 5635.61732,734.023885 5699.26847,734.023885 C5762.91962,734.023885 5814.70223,785.809232 5814.70223,849.46094 C5814.70223,852.859291 5814.53576,856.402708 5814.20739,860.000334 L5819.63155,860.000334 C5819.9561,856.272913 5820.11341,852.82188 5820.11341,849.46094 C5820.11341,782.824699 5765.90241,728.612177 5699.26847,728.612177 M5699.26847,971.07397 C5632.213,971.07397 5577.6599,916.518635 5577.6599,849.46094 C5577.6599,782.404009 5632.213,727.848674 5699.26847,727.848674 C5766.32394,727.848674 5820.87705,782.404009 5820.87705,849.46094 C5820.87705,852.949385 5820.70828,856.532504 5820.36159,860.416443 L5820.33028,860.763837 L5813.36815,860.763837 L5813.40786,860.346201 C5813.76066,856.629469 5813.93859,852.966945 5813.93859,849.46094 C5813.93859,786.229922 5762.49809,734.787388 5699.26847,734.787388 C5636.03885,734.787388 5584.59835,786.229922 5584.59835,849.46094 C5584.59835,912.692722 5636.03885,964.135256 5699.26847,964.135256 C5725.43393,964.135256 5750.0866,955.513781 5770.56139,939.202306 C5790.42756,923.377181 5804.66491,901.167646 5810.65034,876.666838 L5810.72136,876.37518 L5817.85073,876.37518 L5817.74382,876.843208 C5811.67439,903.204672 5796.67263,927.125217 5775.49987,944.197905 C5754.00791,961.52942 5726.93448,971.07397 5699.26847,971.07397" id="Fill-376" fill="#727272" mask="url(#mask-4)"></path>
                        <path d="M5861.34965,970.31062 L6022.25758,970.31062 L6022.25758,728.610802 L5861.34965,728.610802 L5861.34965,970.31062 Z M5860.58601,971.074123 L6023.02122,971.074123 L6023.02122,727.847299 L5860.58601,727.847299 L5860.58601,971.074123 Z" id="Fill-564" fill="#727272" mask="url(#mask-4)"></path>
                    </g>
                </g>
            </g>
        </g>
    </g>
</svg>